PathFileType	4	(X/Y/Z)	Kaydara																																																																																																																									
DataRate	CameraRate	NumFrames	NumMarkers	Units	OrigDataRate	OrigDataStartFrame	OrigNumFrames																																																																																																																					
30	30	7	41	mm	30	31	141																																																																																																																					
Frame#	Time	SALE_LFHD			SALE_RFHD			SALE_LBHD			SALE_RBHD			SALE_LFTShould			SALE_RFTShould			SALE_LRRShould			SALE_RRRShould			SALE_T10			SALE_STRN			SALE_TRUN			SALE_LSHO			SALE_LUPA			SALE_LELB			SALE_LFRM			SALE_LWRA			SALE_LWRB			SALE_LFIN			SALE_RSHO			SALE_RUPA			SALE_RELB			SALE_RFRM			SALE_RWRB			SALE_RFIN			SALE_LFWT			SALE_RFWT			SALE_LBWT			SALE_RBWT			SALE_LTHI			SALE_LKNE			SALE_RWRA			SALE_LSHN			SALE_LANK			SALE_LHEE			SALE_LTOE			SALE_RTHI			SALE_RKNE			SALE_RSHN			SALE_RANK			SALE_RHEE			SALE_RTOE		
		X1	Y1	Z1	X2	Y2	Z2	X3	Y3	Z3	X4	Y4	Z4	X5	Y5	Z5	X6	Y6	Z6	X7	Y7	Z7	X8	Y8	Z8	X9	Y9	Z9	X10	Y10	Z10	X11	Y11	Z11	X12	Y12	Z12	X13	Y13	Z13	X14	Y14	Z14	X15	Y15	Z15	X16	Y16	Z16	X17	Y17	Z17	X18	Y18	Z18	X19	Y19	Z19	X20	Y20	Z20	X21	Y21	Z21	X22	Y22	Z22	X23	Y23	Z23	X24	Y24	Z24	X25	Y25	Z25	X26	Y26	Z26	X27	Y27	Z27	X28	Y28	Z28	X29	Y29	Z29	X30	Y30	Z30	X31	Y31	Z31	X32	Y32	Z32	X33	Y33	Z33	X34	Y34	Z34	X35	Y35	Z35	X36	Y36	Z36	X37	Y37	Z37	X38	Y38	Z38	X39	Y39	Z39	X40	Y40	Z40	X41	Y41	Z41
																																																																																																																												
1	1	221.7548	1649.96872	-1999.7818	89.386	1649.2894	-2006.64337	224.13815	1642.63458	-2136.10031	96.4495	1639.41956	-2135.1712	230.63915	1402.3941	-2044.08859	92.96271	1401.23688	-2043.83972	225.52107	1446.11755	-2165.54352	76.52064	1451.92123	-2157.11761	148.61277	1288.90427	-2216.82907	158.57684	1335.85541	-1989.06616	156.4961	1252.41798	-1941.66809	346.45401	1422.21878	-2117.49268	389.97963	1205.22339	-2112.86942	374.88079	1095.0354	-2123.46558	403.94985	991.67664	-2085.03815	340.76538	858.936	-2012.84668	408.15178	848.58498	-2049.0715	403.3419	809.1777	-1997.39288	-15.43772	1425.811	-2108.19702	-52.06389	1193.75221	-2156.1438	-79.25162	1095.66269	-2105.15106	-71.58807	982.14027	-2108.43292	-89.09373	845.50987	-2053.38821	-100.77276	811.89293	-1996.75507	286.44724	975.11108	-2006.08704	6.47577	972.28111	-2021.34811	235.21227	1045.83862	-2172.30621	58.72674	1049.51904	-2181.70502	288.05576	675.84335	-2176.86325	275.48426	505.78388	-2099.16504	-47.2348	863.43773	-1998.68652	270.09949	309.91293	-2100.29953	264.93872	124.85929	-2148.02246	225.21957	74.91231	-2210.05905	237.60258	86.94724	-2012.71072	4.16485	723.96332	-2181.28387	23.68227	562.73579	-2077.8299	76.14091	376.19331	-2091.875	33.38887	123.27895	-2143.96805	46.19885	80.77837	-2022.68005	83.01904	63.55308	-2212.37823
2	1.033	221.67818	1650.06302	-1999.75983	89.25792	1649.41147	-2006.74225	224.14417	1642.64023	-2136.1171	96.49382	1639.46701	-2135.21042	230.63128	1402.57828	-2043.89221	92.79995	1401.3327	-2043.74863	225.5858	1446.16547	-2165.37857	76.52674	1451.94885	-2157.11258	148.69961	1288.91327	-2216.60431	158.45116	1336.06903	-1988.86154	156.33169	1252.64725	-1941.43143	346.42605	1422.22107	-2117.17728	390.02876	1205.31761	-2112.23221	375.09743	1095.15289	-2122.73041	404.19689	991.86844	-2084.19907	341.0725	859.04655	-2011.92444	408.54294	848.8356	-2048.1514	403.74092	809.47479	-1996.40518	-15.46258	1425.95032	-2108.23578	-52.29076	1193.92395	-2156.13373	-79.45879	1095.7959	-2104.89975	-71.8145	982.24236	-2107.93106	-89.27596	845.79063	-2052.81204	-101.02673	812.2422	-1995.89828	286.28298	975.06165	-2005.93369	6.30965	972.20322	-2021.33621	235.20317	1045.91042	-2172.18918	58.6605	1049.58328	-2181.63834	288.02261	675.84534	-2176.84265	274.6307	504.57027	-2101.91849	-47.3976	863.85162	-1997.91946	270.01055	310.00652	-2100.31067	264.92599	124.841	-2148.07037	225.22367	74.9197	-2210.05829	237.59069	86.9567	-2012.69501	4.11964	724.01833	-2181.34918	23.63538	562.72182	-2077.91214	76.08851	376.17939	-2091.88843	33.38364	123.28037	-2143.96988	46.18072	80.76625	-2022.68936	83.02583	63.58141	-2212.3735
3	1.067	221.59346	1650.07248	-1999.67789	88.05838	1650.44556	-2006.39801	224.14467	1642.71561	-2136.04523	96.48317	1639.54514	-2135.20874	230.56253	1402.7565	-2043.72955	92.76269	1401.50497	-2043.67279	225.57138	1446.21872	-2165.23788	76.54442	1452.04605	-2157.07886	148.70336	1288.9502	-2216.42303	158.28036	1336.26999	-1988.60626	156.14555	1252.84424	-1941.14136	346.48689	1422.42264	-2116.75278	390.12688	1205.5394	-2111.61163	375.294	1095.32455	-2122.06589	404.4136	992.07077	-2083.33496	341.30188	859.33731	-2010.86456	408.8026	849.086	-2047.07672	404.05331	809.82185	-1995.34683	-15.52137	1426.10458	-2108.19321	-52.16179	1193.90396	-2155.59799	-79.62193	1095.90157	-2104.51187	-72.02058	982.41913	-2107.46674	-89.48625	846.03432	-2052.16034	-101.19368	812.62848	-1995.06592	286.14178	975.05219	-2005.81421	6.22564	972.2908	-2021.33545	235.15944	1045.9481	-2172.03506	58.60913	1049.6447	-2181.59714	287.94973	675.86952	-2176.71875	274.66902	504.68681	-2101.745	-47.55602	864.24171	-1997.20901	270.00349	309.98318	-2100.33218	264.93547	124.86433	-2148.02917	225.22591	74.90788	-2210.07278	237.58959	86.94586	-2012.71057	4.12423	724.03481	-2181.36703	23.51617	562.77824	-2077.92969	76.04152	376.19297	-2091.90384	33.39225	123.2822	-2144.00879	46.16992	80.75339	-2022.68066	83.03307	63.59478	-2212.3822
4	1.1	221.63731	1650.03143	-1999.5932	88.30182	1650.12604	-2006.73538	224.13898	1642.88391	-2135.91278	96.43915	1639.7522	-2135.12741	230.4248	1402.98157	-2043.58841	92.65603	1401.67877	-2043.61374	225.56608	1446.27289	-2165.12894	76.51739	1452.12601	-2157.08008	148.6939	1288.92029	-2216.2326	158.15137	1336.55243	-1988.39233	156.02307	1253.23097	-1940.86884	346.32393	1422.51251	-2116.48163	390.24952	1205.74905	-2111.04813	375.44083	1095.49118	-2121.37741	404.57394	992.28897	-2082.46552	341.38287	859.73129	-2009.8555	408.95378	849.32404	-2045.92377	404.10336	810.1545	-1994.09805	-15.5772	1426.29181	-2108.22266	-52.41938	1194.10255	-2155.49881	-79.75486	1096.11938	-2104.18991	-72.15758	982.61711	-2106.94901	-89.78791	846.38725	-2051.3118	-101.30472	812.94075	-1994.43207	286.00368	975.00717	-2005.59692	6.05217	972.27219	-2021.2645	235.14584	1045.99899	-2171.8808	58.59941	1049.69826	-2181.5213	287.95242	675.88173	-2176.65375	274.67411	504.72176	-2101.57639	-47.6632	864.62303	-1996.63757	269.96099	309.99929	-2100.34821	264.92605	124.83648	-2148.05389	225.21244	74.92921	-2210.05585	237.55152	86.93645	-2012.66525	4.17056	724.04373	-2181.40305	23.45078	562.73674	-2077.97089	75.96042	376.19255	-2091.90643	33.37688	123.27583	-2144.00314	46.17539	80.75893	-2022.66708	83.0236	63.60008	-2212.36404
5	1.133	221.50234	1649.83856	-1999.37027	87.81112	1650.31708	-2006.04691	224.07053	1643.13293	-2135.79315	96.42327	1640.01709	-2135.00748	230.36785	1403.26752	-2043.57437	92.60786	1401.88538	-2043.6351	225.52359	1446.27991	-2165.16663	76.49065	1452.16415	-2157.20474	148.65188	1288.87894	-2216.05179	158.05143	1336.96762	-1988.27576	155.90117	1253.59283	-1940.495	346.26179	1422.57614	-2116.22406	390.28416	1205.90096	-2110.57907	375.55759	1095.63797	-2120.73074	404.64058	992.509	-2081.55518	341.4608	859.98825	-2008.78464	409.00032	849.59351	-2044.73648	404.09565	810.54031	-1992.88879	-15.67561	1426.43631	-2108.28964	-52.57203	1194.26598	-2155.36148	-79.8487	1096.34354	-2103.90915	-72.25827	982.76413	-2106.51093	-89.9648	846.62125	-2050.90179	-101.40648	813.16483	-1993.93997	285.92667	975.00671	-2005.50797	6.0144	972.30629	-2021.26205	235.0946	1046.07498	-2171.75644	58.55686	1049.74243	-2181.44745	287.91639	675.90645	-2176.64566	274.61885	504.67232	-2101.7334	-47.72328	864.86526	-1996.14578	269.96204	310.05711	-2100.36118	264.92104	124.83937	-2148.0867	225.20668	74.92321	-2210.07141	237.58261	86.93091	-2012.69073	4.12445	724.0728	-2181.46774	23.33091	562.74097	-2077.9892	75.94718	376.20956	-2091.94336	33.35489	123.28505	-2144.02618	46.15582	80.73923	-2022.68661	83.02527	63.58932	-2212.37274
6	1.167	221.45536	1649.64935	-1999.20517	87.63413	1650.06119	-2006.14151	223.97362	1643.3696	-2135.6131	96.30263	1640.2536	-2134.86206	230.35076	1403.58978	-2043.59299	92.50139	1402.14386	-2043.71994	225.49601	1446.23962	-2165.27161	76.44277	1452.18979	-2157.36099	148.59077	1288.77411	-2215.89294	157.89501	1337.39914	-1988.00949	155.78094	1254.0226	-1940.15503	346.25748	1422.6651	-2116.16379	390.27206	1206.01372	-2110.06943	375.54852	1095.73967	-2120.0647	404.63284	992.66747	-2080.64743	341.44947	860.3064	-2007.67059	408.98148	849.8027	-2043.57468	404.03465	810.84488	-1991.64383	-15.7371	1426.62704	-2108.39417	-52.61044	1194.39354	-2155.08743	-79.95963	1096.50764	-2103.63678	-72.40598	982.93991	-2106.17981	-90.18876	846.89583	-2050.40253	-101.52129	813.37151	-1993.49884	285.88078	975.02632	-2005.43823	5.96639	972.3616	-2021.24496	234.99481	1046.0939	-2171.6423	58.51033	1049.79538	-2181.3649	287.90417	675.93239	-2176.64963	274.58092	504.67487	-2101.77139	-47.8195	865.19653	-1995.7608	269.99613	310.1148	-2100.38086	264.91726	124.83649	-2148.1076	225.21626	74.93712	-2210.05875	237.58856	86.94107	-2012.69012	4.13067	724.06754	-2181.47156	23.28173	562.74166	-2078.02551	75.84069	376.22055	-2091.98563	33.34882	123.27155	-2144.01886	46.1341	80.75345	-2022.68951	83.02067	63.57846	-2212.35718
7	1.2	221.078	1649.32648	-1998.90152	87.07888	1649.59427	-2005.52521	223.76505	1643.67462	-2135.44067	96.08842	1640.29968	-2134.66919	230.37668	1403.89999	-2043.66974	92.51871	1402.44049	-2043.78525	225.56995	1446.28708	-2165.50827	76.43591	1452.2197	-2157.58957	148.53117	1288.66058	-2215.78705	157.78966	1337.91245	-1987.83066	155.65477	1254.58923	-1939.7673	346.24657	1422.81998	-2116.19186	390.30605	1206.11282	-2109.58542	375.52452	1095.84396	-2119.34128	404.53808	992.7784	-2079.70612	341.27285	860.50278	-2006.61118	408.85456	850.01587	-2042.44415	403.83839	811.14975	-1990.44861	-15.75245	1426.91635	-2108.49976	-52.94648	1194.79897	-2155.17822	-80.10283	1096.78795	-2103.32031	-72.62851	983.29369	-2105.84442	-90.43463	847.21245	-2050.07736	-101.68086	813.72513	-1993.1012	285.90626	975.06966	-2005.55328	5.80444	972.27646	-2021.24512	234.88661	1046.10458	-2171.58783	58.4628	1049.81155	-2181.31622	287.83945	675.92789	-2176.67755	274.6348	504.80339	-2101.43066	-48.28181	865.34019	-1995.46677	269.91995	310.06912	-2100.33051	264.91009	124.89964	-2147.99881	225.21135	74.9064	-2210.03174	237.59808	86.94602	-2012.69699	4.11928	724.14116	-2181.49811	23.17111	562.70802	-2078.1131	75.71241	376.20312	-2091.96854	33.29231	123.24334	-2144.07959	46.08305	80.75663	-2022.69318	82.97895	63.55903	-2212.36862
